<svg id="Layer_1" data-name="Layer 1" xmlns="http://www.w3.org/2000/svg" viewBox="0 0 188.1 32.82"><defs><style>.cls-1{fill:#4c8d53;}</style></defs><title>Artboard 2</title><path class="cls-1" d="M86.66,24.67a2.12,2.12,0,0,1-.47.31,2.77,2.77,0,0,0-.34.19,6.48,6.48,0,0,1-1.22.51,6.85,6.85,0,0,1-1.52.28,6.61,6.61,0,0,1-.89-.24,2.22,2.22,0,0,1-.55-.25,1.17,1.17,0,0,1-.46-.52,2,2,0,0,1-.16-.79,1.13,1.13,0,0,1,.11-.48,1.34,1.34,0,0,1,.26-.38,31.16,31.16,0,0,0,2.82-3.08A8.65,8.65,0,0,0,86,16.51a3.46,3.46,0,0,0-.61-2.5,1.2,1.2,0,0,0-.55-.36,2.93,2.93,0,0,0-.87-.11,3.72,3.72,0,0,0-2.64,1.27,13.6,13.6,0,0,0-2.16,2.9,14,14,0,0,0-.86,1.79,5.89,5.89,0,0,0-.52,1.62c0,.29,0,.57-.09.85s-.08.56-.13.84-.67.58-.8.71a7.67,7.67,0,0,0-.73.89,1.38,1.38,0,0,0-.14.27.17.17,0,0,0,0,.07s0-.07,0-.08c-1,.82-1.71,1.44-2.24,1.85a3.69,3.69,0,0,1-.93.62.33.33,0,0,1-.32-.17.88.88,0,0,1-.11-.51,11.56,11.56,0,0,1,.18-1.5c.12-.74.3-1.71.53-2.91.37-1.5.7-2.8,1-3.9s.58-2,.82-2.72c.07-.27.13-.51.17-.71s.08-.38.11-.53l1.45-.3c.17,0,.29-.25.37-.71a12.52,12.52,0,0,0,.12-2,2.44,2.44,0,0,0,0-.51.56.56,0,0,0-.18-.29,1.5,1.5,0,0,1-.22-.22L76.45,10a5.93,5.93,0,0,1,.33-1.21,3.91,3.91,0,0,0,.29-1.3,1.42,1.42,0,0,0-.27-.94,1,1,0,0,0-.8-.32c-.64,0-1.24.67-1.81,2A4.45,4.45,0,0,1,73.27,10c-.5.43-1.17.17-1.76.18a17.21,17.21,0,0,1-2.15.06c-1-.09-1.92-.11-2.87-.11a1,1,0,0,0-.89.72,4.21,4.21,0,0,0-.25,1.21c0,.42-.18.94.16,1.27a2.83,2.83,0,0,0,1.65.54c.27,0,.45,0,.57,0a17.33,17.33,0,0,0,3.38-.12.48.48,0,0,1,.29,0c.38.17-.21,1-.33,1.19a5.09,5.09,0,0,1-.39.63,41.89,41.89,0,0,1-2.85,4.5,24.5,24.5,0,0,1-3,3.37l-.48.6-.33.43-.08.15-.15.08a1.43,1.43,0,0,1-1.32,0A1.57,1.57,0,0,1,62,23.66a18.61,18.61,0,0,1-.21-2.11,2.17,2.17,0,0,0-.23-1.13,1.46,1.46,0,0,0-1.93-.29,4.48,4.48,0,0,0-1.4,1.62,16.82,16.82,0,0,1-4.51,5.32.46.46,0,0,1-.35.11c-.15,0-.22-.23-.25-.38a11.29,11.29,0,0,1,.23-4.73c.37-1.54.92-3,1.36-4.56.13-.44.18-1-.23-1.22a.94.94,0,0,0-.64,0,11.57,11.57,0,0,0-1.12.41,2.81,2.81,0,0,0-.52.26,2.9,2.9,0,0,0-.35.49c-.48.68-1,1.35-1.47,2-1.31,1.73-2.68,3.42-4.11,5.05h0a7,7,0,0,1-3.17,1.85c-2.69.48-3.81-1.8-3.81-4.11.47-.71.92-1.46,1.37-2.25.32-.48.62-.9.87-1.26a35.08,35.08,0,0,0,4.62-9.34A27.23,27.23,0,0,0,47.25,5c.16-1.06.62-2.91-.23-3.8a2.32,2.32,0,0,0-1.7-.48,2.12,2.12,0,0,0-1.4.86C41.66,4.05,40.16,7.65,39,10.75A42.68,42.68,0,0,0,36.52,21a3.86,3.86,0,0,1-.27,1.22c-.41.87-1.44,1.3-1.9,2.14,0,0,0,0,0,0-.79,1-2.56,2.68-3.29.68-.38-1,.11-2.15-.09-3.22a1.19,1.19,0,0,0-.51-.85,1,1,0,0,0-.57-.11A4,4,0,0,0,27.5,22.2q-1.87,1.73-3.86,3.31c-.21.17-1.48,1.42-1.73,1-.13-.24.75-1.2.92-1.44a7.79,7.79,0,0,1,.54-.68c2.3-2.29,4.49-4.73,7-6.84.6-.52,1.93-1.7,1-2.54a1.2,1.2,0,0,0-.82-.24,5,5,0,0,0-2.48.92A36.88,36.88,0,0,0,21.7,20.9a15.08,15.08,0,0,1-2.65,2.27,3.31,3.31,0,0,0-.62.5,1.78,1.78,0,0,0-.27.36h0c-.16.35-1.21.86-1.4.52a1.93,1.93,0,0,1-.1-1.12A5.07,5.07,0,0,0,16.21,21a9.48,9.48,0,0,0-1.53-2.19C12.74,16.53,10,14.18,9,11.3a4.52,4.52,0,0,1-.24-1.43C8.76,7.92,11.27,6,12.7,5A.61.61,0,0,1,13,4.81c.7,0-1.34,1.72-1.46,1.88a.84.84,0,0,0,0,1.11c.66.54,2-.52,2.58-.87q1.55-1,4.07-3a1.41,1.41,0,0,0,.37-.76,6,6,0,0,0,.14-1.47A1.87,1.87,0,0,0,18.4.43,1.28,1.28,0,0,0,17.34,0C16,0,14.21,1.06,13,1.66a22.85,22.85,0,0,0-4,2.6C6.78,6.08,4.66,8.35,4.56,11.42c-.07,2.32,1.36,4.18,2.86,5.81,1.74,1.89,3.72,3.43,5.06,5.68a2.17,2.17,0,0,1,.38,1.79c-.17.49-.91.84-.93,1.33,0,.12,0,.25,0,.38a.87.87,0,0,1-.19.37,3.87,3.87,0,0,1-1.84,1.44c-.13,0-.32,0-.32-.14a.23.23,0,0,1,.08-.14,2.64,2.64,0,0,1,.78-.46,1.38,1.38,0,0,0,.67-.59.56.56,0,0,0-.23-.77.86.86,0,0,0-.64.1c-.95.42-1.9.88-2.84,1.32a28.54,28.54,0,0,0-2.7,1.38c-.68.41-1.39,1-1.28,1.82a1.58,1.58,0,0,0,.39.76,3,3,0,0,0,2.35.85,6.57,6.57,0,0,0,2.46-.75,21.18,21.18,0,0,0,5.28-3.67,2.64,2.64,0,0,1,2-.73,8.68,8.68,0,0,0,2.65-.58v.17A3.28,3.28,0,0,1,18,27.94a2.17,2.17,0,0,0,.44,2.95A2.72,2.72,0,0,0,21,30.67c2.45-1.29,4.06-3.78,6.41-5.24.27,1.09.32,2.33,1.09,3.16,1.14,1.23,2.81.78,4.09,0a6.61,6.61,0,0,0,2.14-1.69c.46-.48,1.57-1.55,1.69-1.68a.28.28,0,0,1,.13-.09.24.24,0,0,1,.2.11,2.42,2.42,0,0,1,.35,1.05,4.78,4.78,0,0,0,1,2.38c1,1.18,3.47,1.31,4.88.9A7.86,7.86,0,0,0,45.63,28,8,8,0,0,0,47,26.82a4.29,4.29,0,0,0,.35-.49,11,11,0,0,1,1.5-1.83.21.21,0,0,1,.19-.08c.07,0,.1.1.12.16a23.08,23.08,0,0,1,.34,3.12,3.21,3.21,0,0,0,1.52,2.6,2.29,2.29,0,0,0,1.44.15,4.33,4.33,0,0,0,1.91-1.14c1.35-1.24,2.42-2.76,3.65-4.12a.22.22,0,0,1,.35,0,10.29,10.29,0,0,0,1.19,2.28A2.78,2.78,0,0,0,62.3,28a7.76,7.76,0,0,0,2.36-1.36l.13-.1h0l.11-.13a14.43,14.43,0,0,1,1.41-1.52c.59-.55,1.22-1.08,1.79-1.67a16.06,16.06,0,0,0,1.54-1.75.37.37,0,0,1,.2-.17c.37-.13.08.57,0,.69a5.64,5.64,0,0,0-.37,1.21,34.5,34.5,0,0,0-.89,6.39,2.6,2.6,0,0,0,.46,1.69,1.71,1.71,0,0,0,1.4.55,2.1,2.1,0,0,0,.92-.24,3.55,3.55,0,0,0,1-.81c.87-.94,1.72-1.92,2.68-2.78a12.3,12.3,0,0,0,1.59-1.33h0a4.23,4.23,0,0,1,.51-.52.64.64,0,0,1,.38-.16.48.48,0,0,1,.39.23,3.05,3.05,0,0,1,.36.69c.16.39.31.72.45,1a2.72,2.72,0,0,0,.43.63,2.51,2.51,0,0,0,1,.68,3.8,3.8,0,0,0,1.4.24,8.07,8.07,0,0,0,4.22-1.37c.21-.15,1.74-1.19,1.65-1.46s-.2-.52-.35-.85S86.85,25.09,86.66,24.67ZM41.57,12.47c.14-.44.23-.91.37-1.35a9.46,9.46,0,0,1,.88-1.88c.08-.12,1.29-1.79,1.47-1.36a0,0,0,0,0,0,0V8a14.62,14.62,0,0,1-2.15,6.41,18.08,18.08,0,0,0-1.19,2c-.23.42-.49,1.17-.91,1.45a.24.24,0,0,1-.3,0,.34.34,0,0,1-.06-.24C39.76,15.79,41,14.2,41.57,12.47Zm39.1,8.37c-.08-.26.13-.67.24-.91a7.39,7.39,0,0,1,1-1.66c.17-.22.45-.56.76-.56h.09c.21.05.25.24.23.43a2.33,2.33,0,0,1-.51,1.16c-.27.32-.59.6-.84.93a3.85,3.85,0,0,1-.5.63C81,21,80.76,21.1,80.67,20.84Z"/><path class="cls-1" d="M116.37,1.1a.67.67,0,0,0-.67-.29,1.24,1.24,0,0,0-.73.57,69.8,69.8,0,0,0-4.43,8c-1.27,2.79-2.42,5.64-3.88,8.35-.34.63-.83-.4-1-.72a11.55,11.55,0,0,1-.78-2.92,36.31,36.31,0,0,1-.72-6.32,23.22,23.22,0,0,0-.39-5.14,1.28,1.28,0,0,0-.46-.81,1.13,1.13,0,0,0-1.08.07,4.36,4.36,0,0,1-1,.51c-.3.08-.62,0-.92.12-.82.24-1.12,1.24-1.17,2.09a17.19,17.19,0,0,0,.5,4.62A50.44,50.44,0,0,0,103,19.44a5.05,5.05,0,0,0,.85,1.41,4.72,4.72,0,0,1,.76.79c.37.63-.4,1.72-.64,2.32-.35.91-.68,1.84-1,2.77s-1.67,3.56-.9,4.41a1.07,1.07,0,0,0,.43.24,5.41,5.41,0,0,0,.89.28c.87.16,3.58-.69,3.58-1.87a1.85,1.85,0,0,0-.26-.54,1.56,1.56,0,0,1-.25-.66,3.79,3.79,0,0,1,.07-.59c0-.28.12-.63.2-1.06a17.47,17.47,0,0,1,.7-2.43c.54-1.48,1.36-2.85,1.89-4.35.19-.55.35-1.12.59-1.65A32.19,32.19,0,0,1,112,15.16c2.32-3.76,4.44-8.34,4.63-12.83A1.8,1.8,0,0,0,116.37,1.1Z"/><path class="cls-1" d="M187.68,25.65c-.14-.34-.27-.66-.42-1a3.83,3.83,0,0,1-.44.33.69.69,0,0,1-.35.1c-.25,0-.37-.22-.45-.43,0,0,0,0,0-.06l0-.06a3.88,3.88,0,0,0,.42-.58,6.11,6.11,0,0,0,.46-1.07,7.75,7.75,0,0,0,.28-1.07,6,6,0,0,0,.08-.86,4.5,4.5,0,0,0-.78-2.88,2.84,2.84,0,0,0-3.1-.76c-.21.07-1.54.73-1.5.29a.74.74,0,0,1,.07-.21l.26-.54a.45.45,0,0,0,.07-.25.32.32,0,0,0-.18-.24,1.8,1.8,0,0,0-1.54,0,3.93,3.93,0,0,0-1.33,1.1,54.29,54.29,0,0,1-6.59,6.18,2.91,2.91,0,0,0-.66.65l-.2.34c-.59.38-1.28-.2-1.61-.63-1-1.28-1.41-2.87-2.71-3.92-1.57-1.26-4.61,2-5.5,3.1-.74.87-.61-.27-.48-.75.19-.72.52-1.4.65-2.14a11,11,0,0,0,.12-2.93,1.54,1.54,0,0,0-.56-1.25,1.52,1.52,0,0,0-1.54.25c-2.09,1.28-3.54,3.31-5.25,5a6.27,6.27,0,0,1-1.24,1.07.26.26,0,0,1-.21-.08.34.34,0,0,1-.07-.22q.14-.54.33-1.11a7.57,7.57,0,0,0,.34-3.06,1.18,1.18,0,0,0-.66-1,1.28,1.28,0,0,0-.7,0c-1.65.38-2.62,1.93-3.79,3-.52.49-1.09,1-1.68,1.66S146,23,145.41,23.73l-.39.55a3.86,3.86,0,0,1-.3.39l0,.07c-.23.22-1.21.65-1.21,0a1,1,0,0,1,.25-.54,6.22,6.22,0,0,0,.85-4.7,3.07,3.07,0,0,0-1.09-1.82,2.9,2.9,0,0,0-2-.48,8.15,8.15,0,0,0-1.6.47c-.21.06-.77.38-.6-.2.08-.28.61-.65.35-1a.59.59,0,0,0-.34-.18c-1.13-.3-2,.41-2.65,1.19-.87,1-1.89,1.86-2.81,2.81a22.34,22.34,0,0,1-3.22,2.85,3.91,3.91,0,0,0-1.11,1,.67.67,0,0,0-.06.12h0c-.19.18-.66.8-.92.84s-.58-.14-.56-.4a.71.71,0,0,1,.17-.36,6.05,6.05,0,0,0,1-2.49,4.93,4.93,0,0,0,.09-.86,4.5,4.5,0,0,0-.78-2.88,2.88,2.88,0,0,0-2.35-.95,3.27,3.27,0,0,0-.68.17c-.36.11-.85.29-1.48.53l-.13-.19c.26-.54.72-1.07,0-1.37a1.82,1.82,0,0,0-1.44.17,5.55,5.55,0,0,0-1.41,1.2c-2.13,2.28-4.43,4.35-6.76,6.41a1,1,0,0,0-.37.51.41.41,0,0,0,0,.11,1.4,1.4,0,0,0,.1.39,4.93,4.93,0,0,0,.64,1.5.81.81,0,0,0,.24-.31,2.32,2.32,0,0,1,.15-.26,16.63,16.63,0,0,1,1.4-1.11.52.52,0,0,1,.24-.13c.71-.12.2,1.18.12,1.44-1,3,1.89,5.05,4.59,4.28a8.22,8.22,0,0,0,4.08-2.65,1.6,1.6,0,0,0,2.19.69,3.84,3.84,0,0,0,.93-.59c.48-.36.92-.76,1.37-1.14a4.82,4.82,0,0,0,.41-.53c0-.42,1.12-1,1.41-1.26a.81.81,0,0,1,.45-.23c.71,0,0,1.56-.07,1.87A3.44,3.44,0,0,0,133.32,30a4.13,4.13,0,0,0,4.12.35,7.92,7.92,0,0,0,1.89-1c.23-.17,1.73-1.22,1.64-1.52.64,2.27,3.71-.27,4.46-1a.32.32,0,0,0,.11-.17s0,0,0,0h0a.17.17,0,0,1,0,.05c.36-.42.7-.87,1.08-1.29L147.87,24c.33-.38.76-1,1.32-1a.34.34,0,0,1,.34.34,11.5,11.5,0,0,1-.76,3.16,11.89,11.89,0,0,0-.76,2.95.47.47,0,0,0,.33.44,2.31,2.31,0,0,0,1,.15c.14,0,.46-.23,1-.71a29.18,29.18,0,0,0,2-2.22,42,42,0,0,1,4.94-5c.21-.17.51-.34.73-.19s.2.44.17.69c-.1.64-.19,1.27-.28,1.91s-.14.9-.18,1.09a4.77,4.77,0,0,1-.2.75c-.11.36-.26.83-.44,1.43s-.26.89-.35,1.24a4,4,0,0,0-.13.84,1.14,1.14,0,0,0,.09.48c.18.44.91.38,1.27.23a3.19,3.19,0,0,0,1.07-.82,29.71,29.71,0,0,0,2-2.36,15.38,15.38,0,0,1,2.51-2.71,1.65,1.65,0,0,1,2.43.06c.67.6,1.18,1.35,1.81,2a3.4,3.4,0,0,0,2.35,1.17,4.22,4.22,0,0,0,2.49-1.21h0a7,7,0,0,1,1.78-1.69.7.7,0,0,1,.36-.14c.6,0,.15,1,.07,1.32a5.55,5.55,0,0,0-.23,1.36,3.27,3.27,0,0,0,1,2.29,3.42,3.42,0,0,0,1.31.87,4.49,4.49,0,0,0,2.75-.22,8.13,8.13,0,0,0,2.53-1.31,7.16,7.16,0,0,0,1.29-1.29,1.58,1.58,0,0,0,.52.66c.76.56,1.78.05,2.45-.4a16.37,16.37,0,0,0,1.68-1.42C188,26.32,187.82,26,187.68,25.65ZM125.81,24a7,7,0,0,1-2.5,3.22c-.93.6-2.82,1.16-3.09-.43a5.8,5.8,0,0,1,.77-3,1.31,1.31,0,0,1,.32-.48,4.26,4.26,0,0,1,.92-.42,2.9,2.9,0,0,0,1-1.21,1.62,1.62,0,0,1,.91-.76,2,2,0,0,1,1,0,1.39,1.39,0,0,1,.44.17C126.53,21.7,126.19,23.14,125.81,24Zm15.57-.26a6.64,6.64,0,0,1-.21.72,1,1,0,0,1-.28.42l-.64.77a5.86,5.86,0,0,1-1.55,1.64,3.25,3.25,0,0,1-1.81.54,1.24,1.24,0,0,1-.92-.3,1.22,1.22,0,0,1-.3-.9,3.76,3.76,0,0,1,.1-.79c.08-.31.19-.69.35-1.13a5.28,5.28,0,0,1,.47-1.15c.16-.26.3-.4.45-.42a2.19,2.19,0,0,0,.61-.2,1.66,1.66,0,0,0,.5-.4c.26-.38.49-.74.69-1.07a3,3,0,0,1,.39-.5.8.8,0,0,1,.31-.22c.46,0,.81.11,1.05.16a1.56,1.56,0,0,1,.47.14c.12.05.23.21.35.46a9.08,9.08,0,0,1,.36,1Zm42.5.09a7.91,7.91,0,0,1-2.59,3.38c-.67.49-2.12,1-2.83.32a1.22,1.22,0,0,1-.3-.9,3.88,3.88,0,0,1,.11-.79,10.46,10.46,0,0,1,.78-2.22,1,1,0,0,1,.3-.39,1.72,1.72,0,0,1,.5-.16,2,2,0,0,0,1.06-.91,7.34,7.34,0,0,1,.81-1.19.75.75,0,0,1,.32-.21.76.76,0,0,1,.3,0,4.23,4.23,0,0,1,1.22.27c.45.22.63,1.07.61,1.52A3.73,3.73,0,0,1,183.88,23.84Z"/></svg>